<mxfile host="app.diagrams.net" agent="Mozilla/5.0 (Windows NT 10.0; Win64; x64) AppleWebKit/537.36 (KHTML, like Gecko) Chrome/131.0.0.0 Safari/537.36" version="26.0.8">
  <diagram id="C5RBs43oDa-KdzZeNtuy" name="Page-1">
    <mxGraphModel dx="1434" dy="746" grid="1" gridSize="10" guides="1" tooltips="1" connect="1" arrows="1" fold="1" page="1" pageScale="1" pageWidth="1600" pageHeight="1169" math="0" shadow="0">
      <root>
        <mxCell id="WIyWlLk6GJQsqaUBKTNV-0" />
        <mxCell id="WIyWlLk6GJQsqaUBKTNV-1" parent="WIyWlLk6GJQsqaUBKTNV-0" />
        <mxCell id="hhj9J0OS0kFNXhIqKxpL-5" value="" style="rounded=0;whiteSpace=wrap;html=1;gradientColor=none;fillColor=none;" vertex="1" parent="WIyWlLk6GJQsqaUBKTNV-1">
          <mxGeometry x="970" y="60" width="240" height="210" as="geometry" />
        </mxCell>
        <mxCell id="hhj9J0OS0kFNXhIqKxpL-2" value="" style="rounded=0;whiteSpace=wrap;html=1;gradientColor=none;fillColor=none;" vertex="1" parent="WIyWlLk6GJQsqaUBKTNV-1">
          <mxGeometry x="80" y="60" width="560" height="1740" as="geometry" />
        </mxCell>
        <mxCell id="WIyWlLk6GJQsqaUBKTNV-2" value="" style="rounded=0;html=1;jettySize=auto;orthogonalLoop=1;fontSize=11;endArrow=block;endFill=0;endSize=8;strokeWidth=1;shadow=0;labelBackgroundColor=none;edgeStyle=orthogonalEdgeStyle;" parent="WIyWlLk6GJQsqaUBKTNV-1" source="WIyWlLk6GJQsqaUBKTNV-3" target="WIyWlLk6GJQsqaUBKTNV-6" edge="1">
          <mxGeometry relative="1" as="geometry" />
        </mxCell>
        <mxCell id="WIyWlLk6GJQsqaUBKTNV-3" value="UN_STARTED" style="rounded=1;whiteSpace=wrap;html=1;fontSize=12;glass=0;strokeWidth=1;shadow=0;fillColor=#66FFFF;" parent="WIyWlLk6GJQsqaUBKTNV-1" vertex="1">
          <mxGeometry x="160" y="80" width="120" height="40" as="geometry" />
        </mxCell>
        <mxCell id="WIyWlLk6GJQsqaUBKTNV-5" value="yes" style="edgeStyle=orthogonalEdgeStyle;rounded=0;html=1;jettySize=auto;orthogonalLoop=1;fontSize=11;endArrow=block;endFill=0;endSize=8;strokeWidth=1;shadow=0;labelBackgroundColor=none;entryX=0;entryY=0.5;entryDx=0;entryDy=0;" parent="WIyWlLk6GJQsqaUBKTNV-1" source="WIyWlLk6GJQsqaUBKTNV-6" target="hhj9J0OS0kFNXhIqKxpL-15" edge="1">
          <mxGeometry y="10" relative="1" as="geometry">
            <mxPoint as="offset" />
            <mxPoint x="340" y="210" as="targetPoint" />
          </mxGeometry>
        </mxCell>
        <mxCell id="hhj9J0OS0kFNXhIqKxpL-25" style="edgeStyle=orthogonalEdgeStyle;rounded=0;orthogonalLoop=1;jettySize=auto;html=1;" edge="1" parent="WIyWlLk6GJQsqaUBKTNV-1" source="WIyWlLk6GJQsqaUBKTNV-6" target="hhj9J0OS0kFNXhIqKxpL-23">
          <mxGeometry relative="1" as="geometry" />
        </mxCell>
        <mxCell id="hhj9J0OS0kFNXhIqKxpL-29" value="No" style="edgeLabel;html=1;align=center;verticalAlign=middle;resizable=0;points=[];" vertex="1" connectable="0" parent="hhj9J0OS0kFNXhIqKxpL-25">
          <mxGeometry x="-0.66" y="1" relative="1" as="geometry">
            <mxPoint as="offset" />
          </mxGeometry>
        </mxCell>
        <mxCell id="WIyWlLk6GJQsqaUBKTNV-6" value="requires_login" style="rhombus;whiteSpace=wrap;html=1;shadow=0;fontFamily=Helvetica;fontSize=12;align=center;strokeWidth=1;spacing=6;spacingTop=-4;gradientColor=none;fillColor=light-dark(#d0e8fc, #ededed);" parent="WIyWlLk6GJQsqaUBKTNV-1" vertex="1">
          <mxGeometry x="170" y="170" width="100" height="80" as="geometry" />
        </mxCell>
        <mxCell id="hhj9J0OS0kFNXhIqKxpL-3" value="HCM State Progression" style="text;html=1;align=center;verticalAlign=middle;whiteSpace=wrap;rounded=0;fontSize=15;" vertex="1" parent="WIyWlLk6GJQsqaUBKTNV-1">
          <mxGeometry x="80" y="30" width="170" height="30" as="geometry" />
        </mxCell>
        <mxCell id="hhj9J0OS0kFNXhIqKxpL-4" value="HCM_Crawler.State Value" style="rounded=1;whiteSpace=wrap;html=1;fontSize=12;glass=0;strokeWidth=1;shadow=0;fillColor=#66FFFF;" vertex="1" parent="WIyWlLk6GJQsqaUBKTNV-1">
          <mxGeometry x="980" y="70" width="190" height="40" as="geometry" />
        </mxCell>
        <mxCell id="hhj9J0OS0kFNXhIqKxpL-6" value="Diagram Legend" style="text;html=1;align=center;verticalAlign=middle;whiteSpace=wrap;rounded=0;fontSize=15;" vertex="1" parent="WIyWlLk6GJQsqaUBKTNV-1">
          <mxGeometry x="970" y="30" width="170" height="30" as="geometry" />
        </mxCell>
        <mxCell id="hhj9J0OS0kFNXhIqKxpL-9" value="" style="triangle;whiteSpace=wrap;html=1;fillColor=#fff2cc;strokeColor=#d6b656;" vertex="1" parent="WIyWlLk6GJQsqaUBKTNV-1">
          <mxGeometry x="1000" y="131" width="30" height="30" as="geometry" />
        </mxCell>
        <mxCell id="hhj9J0OS0kFNXhIqKxpL-10" value="API Request" style="text;html=1;align=center;verticalAlign=middle;whiteSpace=wrap;rounded=0;" vertex="1" parent="WIyWlLk6GJQsqaUBKTNV-1">
          <mxGeometry x="1040" y="131" width="60" height="30" as="geometry" />
        </mxCell>
        <mxCell id="hhj9J0OS0kFNXhIqKxpL-11" value="" style="rhombus;whiteSpace=wrap;html=1;shadow=0;fontFamily=Helvetica;fontSize=12;align=center;strokeWidth=1;spacing=6;spacingTop=-4;gradientColor=none;fillColor=light-dark(#d0e8fc, #ededed);" vertex="1" parent="WIyWlLk6GJQsqaUBKTNV-1">
          <mxGeometry x="980" y="191" width="70" height="60" as="geometry" />
        </mxCell>
        <mxCell id="hhj9J0OS0kFNXhIqKxpL-12" value="HCM Crawler Method" style="text;html=1;align=center;verticalAlign=middle;whiteSpace=wrap;rounded=0;" vertex="1" parent="WIyWlLk6GJQsqaUBKTNV-1">
          <mxGeometry x="1070" y="206" width="120" height="45" as="geometry" />
        </mxCell>
        <mxCell id="hhj9J0OS0kFNXhIqKxpL-17" style="edgeStyle=orthogonalEdgeStyle;rounded=0;orthogonalLoop=1;jettySize=auto;html=1;endArrow=block;endFill=0;" edge="1" parent="WIyWlLk6GJQsqaUBKTNV-1" source="hhj9J0OS0kFNXhIqKxpL-15" target="hhj9J0OS0kFNXhIqKxpL-16">
          <mxGeometry relative="1" as="geometry" />
        </mxCell>
        <mxCell id="hhj9J0OS0kFNXhIqKxpL-15" value="LOGGING_IN" style="rounded=1;whiteSpace=wrap;html=1;fontSize=12;glass=0;strokeWidth=1;shadow=0;fillColor=#66FFFF;" vertex="1" parent="WIyWlLk6GJQsqaUBKTNV-1">
          <mxGeometry x="330" y="190" width="190" height="40" as="geometry" />
        </mxCell>
        <mxCell id="hhj9J0OS0kFNXhIqKxpL-34" style="edgeStyle=orthogonalEdgeStyle;rounded=0;orthogonalLoop=1;jettySize=auto;html=1;entryX=0.5;entryY=0;entryDx=0;entryDy=0;" edge="1" parent="WIyWlLk6GJQsqaUBKTNV-1" source="hhj9J0OS0kFNXhIqKxpL-16" target="hhj9J0OS0kFNXhIqKxpL-30">
          <mxGeometry relative="1" as="geometry">
            <Array as="points">
              <mxPoint x="365" y="300" />
            </Array>
          </mxGeometry>
        </mxCell>
        <mxCell id="hhj9J0OS0kFNXhIqKxpL-36" value="No Exception" style="edgeLabel;html=1;align=center;verticalAlign=middle;resizable=0;points=[];" vertex="1" connectable="0" parent="hhj9J0OS0kFNXhIqKxpL-34">
          <mxGeometry x="-0.04" y="-4" relative="1" as="geometry">
            <mxPoint as="offset" />
          </mxGeometry>
        </mxCell>
        <mxCell id="hhj9J0OS0kFNXhIqKxpL-51" style="edgeStyle=orthogonalEdgeStyle;rounded=0;orthogonalLoop=1;jettySize=auto;html=1;entryX=0.5;entryY=0;entryDx=0;entryDy=0;" edge="1" parent="WIyWlLk6GJQsqaUBKTNV-1" source="hhj9J0OS0kFNXhIqKxpL-16" target="hhj9J0OS0kFNXhIqKxpL-46">
          <mxGeometry relative="1" as="geometry">
            <Array as="points">
              <mxPoint x="510" y="300" />
              <mxPoint x="510" y="560" />
              <mxPoint x="435" y="560" />
            </Array>
          </mxGeometry>
        </mxCell>
        <mxCell id="hhj9J0OS0kFNXhIqKxpL-54" value="Exception / Login Fails" style="edgeLabel;html=1;align=center;verticalAlign=middle;resizable=0;points=[];" vertex="1" connectable="0" parent="hhj9J0OS0kFNXhIqKxpL-51">
          <mxGeometry x="-0.6098" y="3" relative="1" as="geometry">
            <mxPoint x="-3" y="75" as="offset" />
          </mxGeometry>
        </mxCell>
        <mxCell id="hhj9J0OS0kFNXhIqKxpL-16" value="attempt_login" style="rhombus;whiteSpace=wrap;html=1;shadow=0;fontFamily=Helvetica;fontSize=12;align=center;strokeWidth=1;spacing=6;spacingTop=-4;gradientColor=none;fillColor=light-dark(#d0e8fc, #ededed);" vertex="1" parent="WIyWlLk6GJQsqaUBKTNV-1">
          <mxGeometry x="375" y="260" width="100" height="80" as="geometry" />
        </mxCell>
        <mxCell id="hhj9J0OS0kFNXhIqKxpL-74" style="edgeStyle=orthogonalEdgeStyle;rounded=0;orthogonalLoop=1;jettySize=auto;html=1;" edge="1" parent="WIyWlLk6GJQsqaUBKTNV-1" source="hhj9J0OS0kFNXhIqKxpL-23" target="hhj9J0OS0kFNXhIqKxpL-72">
          <mxGeometry relative="1" as="geometry" />
        </mxCell>
        <mxCell id="hhj9J0OS0kFNXhIqKxpL-23" value="LOGGED_IN" style="rounded=1;whiteSpace=wrap;html=1;fontSize=12;glass=0;strokeWidth=1;shadow=0;fillColor=#66FFFF;" vertex="1" parent="WIyWlLk6GJQsqaUBKTNV-1">
          <mxGeometry x="167.5" y="1008" width="105" height="30" as="geometry" />
        </mxCell>
        <mxCell id="hhj9J0OS0kFNXhIqKxpL-41" style="edgeStyle=orthogonalEdgeStyle;rounded=0;orthogonalLoop=1;jettySize=auto;html=1;" edge="1" parent="WIyWlLk6GJQsqaUBKTNV-1" source="hhj9J0OS0kFNXhIqKxpL-30" target="hhj9J0OS0kFNXhIqKxpL-40">
          <mxGeometry relative="1" as="geometry" />
        </mxCell>
        <mxCell id="hhj9J0OS0kFNXhIqKxpL-42" value="No Exception" style="edgeLabel;html=1;align=center;verticalAlign=middle;resizable=0;points=[];" vertex="1" connectable="0" parent="hhj9J0OS0kFNXhIqKxpL-41">
          <mxGeometry x="-0.0286" y="1" relative="1" as="geometry">
            <mxPoint y="1" as="offset" />
          </mxGeometry>
        </mxCell>
        <mxCell id="hhj9J0OS0kFNXhIqKxpL-53" style="edgeStyle=orthogonalEdgeStyle;rounded=0;orthogonalLoop=1;jettySize=auto;html=1;" edge="1" parent="WIyWlLk6GJQsqaUBKTNV-1" source="hhj9J0OS0kFNXhIqKxpL-30">
          <mxGeometry relative="1" as="geometry">
            <mxPoint x="510" y="385" as="targetPoint" />
          </mxGeometry>
        </mxCell>
        <mxCell id="hhj9J0OS0kFNXhIqKxpL-30" value="" style="triangle;whiteSpace=wrap;html=1;fillColor=#fff2cc;strokeColor=#d6b656;" vertex="1" parent="WIyWlLk6GJQsqaUBKTNV-1">
          <mxGeometry x="350" y="370" width="30" height="30" as="geometry" />
        </mxCell>
        <mxCell id="hhj9J0OS0kFNXhIqKxpL-33" value="Website Login" style="text;html=1;align=center;verticalAlign=middle;whiteSpace=wrap;rounded=0;" vertex="1" parent="WIyWlLk6GJQsqaUBKTNV-1">
          <mxGeometry x="260" y="370" width="90" height="30" as="geometry" />
        </mxCell>
        <mxCell id="hhj9J0OS0kFNXhIqKxpL-43" style="edgeStyle=orthogonalEdgeStyle;rounded=0;orthogonalLoop=1;jettySize=auto;html=1;" edge="1" parent="WIyWlLk6GJQsqaUBKTNV-1" source="hhj9J0OS0kFNXhIqKxpL-40" target="hhj9J0OS0kFNXhIqKxpL-23">
          <mxGeometry relative="1" as="geometry" />
        </mxCell>
        <mxCell id="hhj9J0OS0kFNXhIqKxpL-44" value="no" style="edgeLabel;html=1;align=center;verticalAlign=middle;resizable=0;points=[];" vertex="1" connectable="0" parent="hhj9J0OS0kFNXhIqKxpL-43">
          <mxGeometry x="0.0353" y="1" relative="1" as="geometry">
            <mxPoint as="offset" />
          </mxGeometry>
        </mxCell>
        <mxCell id="hhj9J0OS0kFNXhIqKxpL-47" style="edgeStyle=orthogonalEdgeStyle;rounded=0;orthogonalLoop=1;jettySize=auto;html=1;entryX=0.5;entryY=0;entryDx=0;entryDy=0;" edge="1" parent="WIyWlLk6GJQsqaUBKTNV-1" source="hhj9J0OS0kFNXhIqKxpL-40" target="hhj9J0OS0kFNXhIqKxpL-46">
          <mxGeometry relative="1" as="geometry">
            <Array as="points">
              <mxPoint x="365" y="560" />
              <mxPoint x="435" y="560" />
            </Array>
          </mxGeometry>
        </mxCell>
        <mxCell id="hhj9J0OS0kFNXhIqKxpL-52" value="yes" style="edgeLabel;html=1;align=center;verticalAlign=middle;resizable=0;points=[];" vertex="1" connectable="0" parent="hhj9J0OS0kFNXhIqKxpL-47">
          <mxGeometry x="-0.3667" y="-1" relative="1" as="geometry">
            <mxPoint as="offset" />
          </mxGeometry>
        </mxCell>
        <mxCell id="hhj9J0OS0kFNXhIqKxpL-40" value="requires_login" style="rhombus;whiteSpace=wrap;html=1;shadow=0;fontFamily=Helvetica;fontSize=12;align=center;strokeWidth=1;spacing=6;spacingTop=-4;gradientColor=none;fillColor=light-dark(#d0e8fc, #ededed);" vertex="1" parent="WIyWlLk6GJQsqaUBKTNV-1">
          <mxGeometry x="315" y="470" width="100" height="80" as="geometry" />
        </mxCell>
        <mxCell id="hhj9J0OS0kFNXhIqKxpL-57" style="edgeStyle=orthogonalEdgeStyle;rounded=0;orthogonalLoop=1;jettySize=auto;html=1;" edge="1" parent="WIyWlLk6GJQsqaUBKTNV-1" source="hhj9J0OS0kFNXhIqKxpL-46" target="hhj9J0OS0kFNXhIqKxpL-56">
          <mxGeometry relative="1" as="geometry" />
        </mxCell>
        <mxCell id="hhj9J0OS0kFNXhIqKxpL-46" value="CREATING_ACCOUNT" style="rounded=1;whiteSpace=wrap;html=1;fontSize=12;glass=0;strokeWidth=1;shadow=0;fillColor=#66FFFF;" vertex="1" parent="WIyWlLk6GJQsqaUBKTNV-1">
          <mxGeometry x="340" y="600" width="190" height="40" as="geometry" />
        </mxCell>
        <mxCell id="hhj9J0OS0kFNXhIqKxpL-55" style="edgeStyle=orthogonalEdgeStyle;rounded=0;orthogonalLoop=1;jettySize=auto;html=1;exitX=0.5;exitY=1;exitDx=0;exitDy=0;" edge="1" parent="WIyWlLk6GJQsqaUBKTNV-1" source="hhj9J0OS0kFNXhIqKxpL-5" target="hhj9J0OS0kFNXhIqKxpL-5">
          <mxGeometry relative="1" as="geometry" />
        </mxCell>
        <mxCell id="hhj9J0OS0kFNXhIqKxpL-59" style="edgeStyle=orthogonalEdgeStyle;rounded=0;orthogonalLoop=1;jettySize=auto;html=1;entryX=0.5;entryY=0;entryDx=0;entryDy=0;" edge="1" parent="WIyWlLk6GJQsqaUBKTNV-1" source="hhj9J0OS0kFNXhIqKxpL-56" target="hhj9J0OS0kFNXhIqKxpL-58">
          <mxGeometry relative="1" as="geometry" />
        </mxCell>
        <mxCell id="hhj9J0OS0kFNXhIqKxpL-68" style="edgeStyle=orthogonalEdgeStyle;rounded=0;orthogonalLoop=1;jettySize=auto;html=1;" edge="1" parent="WIyWlLk6GJQsqaUBKTNV-1" source="hhj9J0OS0kFNXhIqKxpL-56" target="hhj9J0OS0kFNXhIqKxpL-67">
          <mxGeometry relative="1" as="geometry">
            <Array as="points">
              <mxPoint x="520" y="720" />
            </Array>
          </mxGeometry>
        </mxCell>
        <mxCell id="hhj9J0OS0kFNXhIqKxpL-71" value="Exception /&lt;div&gt;Account Creation&lt;/div&gt;&lt;div&gt;Error&lt;/div&gt;" style="edgeLabel;html=1;align=center;verticalAlign=middle;resizable=0;points=[];" vertex="1" connectable="0" parent="hhj9J0OS0kFNXhIqKxpL-68">
          <mxGeometry x="-0.226" y="-1" relative="1" as="geometry">
            <mxPoint as="offset" />
          </mxGeometry>
        </mxCell>
        <mxCell id="hhj9J0OS0kFNXhIqKxpL-56" value="create_account" style="rhombus;whiteSpace=wrap;html=1;shadow=0;fontFamily=Helvetica;fontSize=12;align=center;strokeWidth=1;spacing=6;spacingTop=-4;gradientColor=none;fillColor=light-dark(#d0e8fc, #ededed);" vertex="1" parent="WIyWlLk6GJQsqaUBKTNV-1">
          <mxGeometry x="385" y="680" width="100" height="80" as="geometry" />
        </mxCell>
        <mxCell id="hhj9J0OS0kFNXhIqKxpL-69" style="edgeStyle=orthogonalEdgeStyle;rounded=0;orthogonalLoop=1;jettySize=auto;html=1;" edge="1" parent="WIyWlLk6GJQsqaUBKTNV-1" source="hhj9J0OS0kFNXhIqKxpL-58">
          <mxGeometry relative="1" as="geometry">
            <mxPoint x="520" y="805" as="targetPoint" />
          </mxGeometry>
        </mxCell>
        <mxCell id="hhj9J0OS0kFNXhIqKxpL-97" style="edgeStyle=orthogonalEdgeStyle;rounded=0;orthogonalLoop=1;jettySize=auto;html=1;" edge="1" parent="WIyWlLk6GJQsqaUBKTNV-1" source="hhj9J0OS0kFNXhIqKxpL-58" target="hhj9J0OS0kFNXhIqKxpL-96">
          <mxGeometry relative="1" as="geometry" />
        </mxCell>
        <mxCell id="hhj9J0OS0kFNXhIqKxpL-58" value="" style="triangle;whiteSpace=wrap;html=1;fillColor=#fff2cc;strokeColor=#d6b656;" vertex="1" parent="WIyWlLk6GJQsqaUBKTNV-1">
          <mxGeometry x="350" y="790" width="30" height="30" as="geometry" />
        </mxCell>
        <mxCell id="hhj9J0OS0kFNXhIqKxpL-60" value="Create New Account" style="text;html=1;align=center;verticalAlign=middle;whiteSpace=wrap;rounded=0;" vertex="1" parent="WIyWlLk6GJQsqaUBKTNV-1">
          <mxGeometry x="260" y="790" width="90" height="30" as="geometry" />
        </mxCell>
        <mxCell id="hhj9J0OS0kFNXhIqKxpL-63" style="edgeStyle=orthogonalEdgeStyle;rounded=0;orthogonalLoop=1;jettySize=auto;html=1;entryX=1;entryY=0.5;entryDx=0;entryDy=0;" edge="1" parent="WIyWlLk6GJQsqaUBKTNV-1" source="hhj9J0OS0kFNXhIqKxpL-61" target="hhj9J0OS0kFNXhIqKxpL-23">
          <mxGeometry relative="1" as="geometry" />
        </mxCell>
        <mxCell id="hhj9J0OS0kFNXhIqKxpL-66" value="no" style="edgeLabel;html=1;align=center;verticalAlign=middle;resizable=0;points=[];" vertex="1" connectable="0" parent="hhj9J0OS0kFNXhIqKxpL-63">
          <mxGeometry x="0.1765" y="-4" relative="1" as="geometry">
            <mxPoint x="4" as="offset" />
          </mxGeometry>
        </mxCell>
        <mxCell id="hhj9J0OS0kFNXhIqKxpL-64" style="edgeStyle=orthogonalEdgeStyle;rounded=0;orthogonalLoop=1;jettySize=auto;html=1;entryX=1;entryY=0.75;entryDx=0;entryDy=0;" edge="1" parent="WIyWlLk6GJQsqaUBKTNV-1" source="hhj9J0OS0kFNXhIqKxpL-61" target="hhj9J0OS0kFNXhIqKxpL-15">
          <mxGeometry relative="1" as="geometry">
            <Array as="points">
              <mxPoint x="570" y="1023" />
              <mxPoint x="570" y="220" />
            </Array>
          </mxGeometry>
        </mxCell>
        <mxCell id="hhj9J0OS0kFNXhIqKxpL-65" value="Login after&lt;div&gt;making new account&lt;/div&gt;" style="edgeLabel;html=1;align=center;verticalAlign=middle;resizable=0;points=[];" vertex="1" connectable="0" parent="hhj9J0OS0kFNXhIqKxpL-64">
          <mxGeometry x="0.1955" y="-3" relative="1" as="geometry">
            <mxPoint as="offset" />
          </mxGeometry>
        </mxCell>
        <mxCell id="hhj9J0OS0kFNXhIqKxpL-61" value="requires_login" style="rhombus;whiteSpace=wrap;html=1;shadow=0;fontFamily=Helvetica;fontSize=12;align=center;strokeWidth=1;spacing=6;spacingTop=-4;gradientColor=none;fillColor=light-dark(#d0e8fc, #ededed);" vertex="1" parent="WIyWlLk6GJQsqaUBKTNV-1">
          <mxGeometry x="315" y="983" width="100" height="80" as="geometry" />
        </mxCell>
        <mxCell id="hhj9J0OS0kFNXhIqKxpL-102" style="edgeStyle=orthogonalEdgeStyle;rounded=0;orthogonalLoop=1;jettySize=auto;html=1;" edge="1" parent="WIyWlLk6GJQsqaUBKTNV-1" source="hhj9J0OS0kFNXhIqKxpL-67" target="hhj9J0OS0kFNXhIqKxpL-99">
          <mxGeometry relative="1" as="geometry">
            <Array as="points">
              <mxPoint x="600" y="1650" />
            </Array>
          </mxGeometry>
        </mxCell>
        <mxCell id="hhj9J0OS0kFNXhIqKxpL-67" value="ERROR" style="rounded=1;whiteSpace=wrap;html=1;fontSize=12;glass=0;strokeWidth=1;shadow=0;fillColor=#66FFFF;" vertex="1" parent="WIyWlLk6GJQsqaUBKTNV-1">
          <mxGeometry x="432" y="1090" width="172.5" height="40" as="geometry" />
        </mxCell>
        <mxCell id="hhj9J0OS0kFNXhIqKxpL-78" style="edgeStyle=orthogonalEdgeStyle;rounded=0;orthogonalLoop=1;jettySize=auto;html=1;" edge="1" parent="WIyWlLk6GJQsqaUBKTNV-1" source="hhj9J0OS0kFNXhIqKxpL-72" target="hhj9J0OS0kFNXhIqKxpL-76">
          <mxGeometry relative="1" as="geometry" />
        </mxCell>
        <mxCell id="hhj9J0OS0kFNXhIqKxpL-79" value="Text" style="edgeLabel;html=1;align=center;verticalAlign=middle;resizable=0;points=[];" vertex="1" connectable="0" parent="hhj9J0OS0kFNXhIqKxpL-78">
          <mxGeometry x="-0.181" y="1" relative="1" as="geometry">
            <mxPoint as="offset" />
          </mxGeometry>
        </mxCell>
        <mxCell id="hhj9J0OS0kFNXhIqKxpL-80" value="elements &amp;gt; 0" style="edgeLabel;html=1;align=center;verticalAlign=middle;resizable=0;points=[];" vertex="1" connectable="0" parent="hhj9J0OS0kFNXhIqKxpL-78">
          <mxGeometry x="-0.1429" y="-1" relative="1" as="geometry">
            <mxPoint as="offset" />
          </mxGeometry>
        </mxCell>
        <mxCell id="hhj9J0OS0kFNXhIqKxpL-81" style="edgeStyle=orthogonalEdgeStyle;rounded=0;orthogonalLoop=1;jettySize=auto;html=1;" edge="1" parent="WIyWlLk6GJQsqaUBKTNV-1" source="hhj9J0OS0kFNXhIqKxpL-72" target="hhj9J0OS0kFNXhIqKxpL-75">
          <mxGeometry relative="1" as="geometry" />
        </mxCell>
        <mxCell id="hhj9J0OS0kFNXhIqKxpL-82" value="elements = 0" style="edgeLabel;html=1;align=center;verticalAlign=middle;resizable=0;points=[];" vertex="1" connectable="0" parent="hhj9J0OS0kFNXhIqKxpL-81">
          <mxGeometry x="-0.1333" y="-2" relative="1" as="geometry">
            <mxPoint as="offset" />
          </mxGeometry>
        </mxCell>
        <mxCell id="hhj9J0OS0kFNXhIqKxpL-72" value="get_application_elements" style="rhombus;whiteSpace=wrap;html=1;shadow=0;fontFamily=Helvetica;fontSize=12;align=center;strokeWidth=1;spacing=6;spacingTop=-4;gradientColor=none;fillColor=light-dark(#d0e8fc, #ededed);" vertex="1" parent="WIyWlLk6GJQsqaUBKTNV-1">
          <mxGeometry x="135" y="1163" width="170" height="90" as="geometry" />
        </mxCell>
        <mxCell id="hhj9J0OS0kFNXhIqKxpL-73" value="&lt;i&gt;Note: Retrieves html elements that need to be filled out returns [] if there are none&lt;/i&gt;" style="text;html=1;align=center;verticalAlign=middle;whiteSpace=wrap;rounded=0;" vertex="1" parent="WIyWlLk6GJQsqaUBKTNV-1">
          <mxGeometry x="75" y="1113" width="115" height="70" as="geometry" />
        </mxCell>
        <mxCell id="hhj9J0OS0kFNXhIqKxpL-92" style="edgeStyle=orthogonalEdgeStyle;rounded=0;orthogonalLoop=1;jettySize=auto;html=1;" edge="1" parent="WIyWlLk6GJQsqaUBKTNV-1" source="hhj9J0OS0kFNXhIqKxpL-75" target="hhj9J0OS0kFNXhIqKxpL-91">
          <mxGeometry relative="1" as="geometry" />
        </mxCell>
        <mxCell id="hhj9J0OS0kFNXhIqKxpL-95" value="Successful Submit" style="edgeLabel;html=1;align=center;verticalAlign=middle;resizable=0;points=[];" vertex="1" connectable="0" parent="hhj9J0OS0kFNXhIqKxpL-92">
          <mxGeometry x="-0.0333" relative="1" as="geometry">
            <mxPoint as="offset" />
          </mxGeometry>
        </mxCell>
        <mxCell id="hhj9J0OS0kFNXhIqKxpL-93" style="edgeStyle=orthogonalEdgeStyle;rounded=0;orthogonalLoop=1;jettySize=auto;html=1;entryX=0;entryY=0.5;entryDx=0;entryDy=0;" edge="1" parent="WIyWlLk6GJQsqaUBKTNV-1" source="hhj9J0OS0kFNXhIqKxpL-75" target="hhj9J0OS0kFNXhIqKxpL-85">
          <mxGeometry relative="1" as="geometry" />
        </mxCell>
        <mxCell id="hhj9J0OS0kFNXhIqKxpL-94" value="Exception Occurs" style="edgeLabel;html=1;align=center;verticalAlign=middle;resizable=0;points=[];" vertex="1" connectable="0" parent="hhj9J0OS0kFNXhIqKxpL-93">
          <mxGeometry x="-0.0708" y="1" relative="1" as="geometry">
            <mxPoint as="offset" />
          </mxGeometry>
        </mxCell>
        <mxCell id="hhj9J0OS0kFNXhIqKxpL-75" value="attempt_submit_app" style="rhombus;whiteSpace=wrap;html=1;shadow=0;fontFamily=Helvetica;fontSize=12;align=center;strokeWidth=1;spacing=6;spacingTop=-4;gradientColor=none;fillColor=light-dark(#d0e8fc, #ededed);" vertex="1" parent="WIyWlLk6GJQsqaUBKTNV-1">
          <mxGeometry x="152.5" y="1363" width="135" height="80" as="geometry" />
        </mxCell>
        <mxCell id="hhj9J0OS0kFNXhIqKxpL-88" style="edgeStyle=orthogonalEdgeStyle;rounded=0;orthogonalLoop=1;jettySize=auto;html=1;" edge="1" parent="WIyWlLk6GJQsqaUBKTNV-1" source="hhj9J0OS0kFNXhIqKxpL-76" target="hhj9J0OS0kFNXhIqKxpL-83">
          <mxGeometry relative="1" as="geometry" />
        </mxCell>
        <mxCell id="hhj9J0OS0kFNXhIqKxpL-76" value="FILLING_APPLICATION" style="rounded=1;whiteSpace=wrap;html=1;fontSize=12;glass=0;strokeWidth=1;shadow=0;fillColor=#66FFFF;" vertex="1" parent="WIyWlLk6GJQsqaUBKTNV-1">
          <mxGeometry x="410" y="1188" width="145" height="40" as="geometry" />
        </mxCell>
        <mxCell id="hhj9J0OS0kFNXhIqKxpL-86" style="edgeStyle=orthogonalEdgeStyle;rounded=0;orthogonalLoop=1;jettySize=auto;html=1;" edge="1" parent="WIyWlLk6GJQsqaUBKTNV-1" source="hhj9J0OS0kFNXhIqKxpL-83" target="hhj9J0OS0kFNXhIqKxpL-85">
          <mxGeometry relative="1" as="geometry" />
        </mxCell>
        <mxCell id="hhj9J0OS0kFNXhIqKxpL-87" value="Exception Occurs" style="edgeLabel;html=1;align=center;verticalAlign=middle;resizable=0;points=[];" vertex="1" connectable="0" parent="hhj9J0OS0kFNXhIqKxpL-86">
          <mxGeometry x="-0.18" y="1" relative="1" as="geometry">
            <mxPoint as="offset" />
          </mxGeometry>
        </mxCell>
        <mxCell id="hhj9J0OS0kFNXhIqKxpL-89" style="edgeStyle=orthogonalEdgeStyle;rounded=0;orthogonalLoop=1;jettySize=auto;html=1;entryX=1;entryY=1;entryDx=0;entryDy=0;" edge="1" parent="WIyWlLk6GJQsqaUBKTNV-1" source="hhj9J0OS0kFNXhIqKxpL-83" target="hhj9J0OS0kFNXhIqKxpL-72">
          <mxGeometry relative="1" as="geometry" />
        </mxCell>
        <mxCell id="hhj9J0OS0kFNXhIqKxpL-90" value="Successful" style="edgeLabel;html=1;align=center;verticalAlign=middle;resizable=0;points=[];" vertex="1" connectable="0" parent="hhj9J0OS0kFNXhIqKxpL-89">
          <mxGeometry x="-0.3908" y="2" relative="1" as="geometry">
            <mxPoint as="offset" />
          </mxGeometry>
        </mxCell>
        <mxCell id="hhj9J0OS0kFNXhIqKxpL-83" value="fill_application_elements" style="rhombus;whiteSpace=wrap;html=1;shadow=0;fontFamily=Helvetica;fontSize=12;align=center;strokeWidth=1;spacing=6;spacingTop=-4;gradientColor=none;fillColor=light-dark(#d0e8fc, #ededed);" vertex="1" parent="WIyWlLk6GJQsqaUBKTNV-1">
          <mxGeometry x="397.5" y="1293" width="170" height="81" as="geometry" />
        </mxCell>
        <mxCell id="hhj9J0OS0kFNXhIqKxpL-84" value="&lt;i&gt;Note: fills elements using AI and attempts to submit/move to next page&lt;/i&gt;" style="text;html=1;align=center;verticalAlign=middle;whiteSpace=wrap;rounded=0;" vertex="1" parent="WIyWlLk6GJQsqaUBKTNV-1">
          <mxGeometry x="550" y="1304" width="115" height="70" as="geometry" />
        </mxCell>
        <mxCell id="hhj9J0OS0kFNXhIqKxpL-101" style="edgeStyle=orthogonalEdgeStyle;rounded=0;orthogonalLoop=1;jettySize=auto;html=1;" edge="1" parent="WIyWlLk6GJQsqaUBKTNV-1" source="hhj9J0OS0kFNXhIqKxpL-85" target="hhj9J0OS0kFNXhIqKxpL-99">
          <mxGeometry relative="1" as="geometry">
            <Array as="points">
              <mxPoint x="482" y="1650" />
            </Array>
          </mxGeometry>
        </mxCell>
        <mxCell id="hhj9J0OS0kFNXhIqKxpL-85" value="ERROR" style="rounded=1;whiteSpace=wrap;html=1;fontSize=12;glass=0;strokeWidth=1;shadow=0;fillColor=#66FFFF;" vertex="1" parent="WIyWlLk6GJQsqaUBKTNV-1">
          <mxGeometry x="432" y="1463" width="100" height="40" as="geometry" />
        </mxCell>
        <mxCell id="hhj9J0OS0kFNXhIqKxpL-100" style="edgeStyle=orthogonalEdgeStyle;rounded=0;orthogonalLoop=1;jettySize=auto;html=1;" edge="1" parent="WIyWlLk6GJQsqaUBKTNV-1" source="hhj9J0OS0kFNXhIqKxpL-91" target="hhj9J0OS0kFNXhIqKxpL-99">
          <mxGeometry relative="1" as="geometry" />
        </mxCell>
        <mxCell id="hhj9J0OS0kFNXhIqKxpL-91" value="SUBMITTED_APPLICATION" style="rounded=1;whiteSpace=wrap;html=1;fontSize=12;glass=0;strokeWidth=1;shadow=0;fillColor=#66FFFF;" vertex="1" parent="WIyWlLk6GJQsqaUBKTNV-1">
          <mxGeometry x="135" y="1503" width="170" height="40" as="geometry" />
        </mxCell>
        <mxCell id="hhj9J0OS0kFNXhIqKxpL-98" style="edgeStyle=orthogonalEdgeStyle;rounded=0;orthogonalLoop=1;jettySize=auto;html=1;" edge="1" parent="WIyWlLk6GJQsqaUBKTNV-1" source="hhj9J0OS0kFNXhIqKxpL-96" target="hhj9J0OS0kFNXhIqKxpL-61">
          <mxGeometry relative="1" as="geometry" />
        </mxCell>
        <mxCell id="hhj9J0OS0kFNXhIqKxpL-96" value="CREATED_ACCOUNT" style="rounded=1;whiteSpace=wrap;html=1;fontSize=12;glass=0;strokeWidth=1;shadow=0;fillColor=#66FFFF;" vertex="1" parent="WIyWlLk6GJQsqaUBKTNV-1">
          <mxGeometry x="293.75" y="880" width="142.5" height="40" as="geometry" />
        </mxCell>
        <mxCell id="hhj9J0OS0kFNXhIqKxpL-99" value="log_state_progression" style="rhombus;whiteSpace=wrap;html=1;shadow=0;fontFamily=Helvetica;fontSize=12;align=center;strokeWidth=1;spacing=6;spacingTop=-4;gradientColor=none;fillColor=light-dark(#d0e8fc, #ededed);" vertex="1" parent="WIyWlLk6GJQsqaUBKTNV-1">
          <mxGeometry x="270" y="1610" width="157.5" height="80" as="geometry" />
        </mxCell>
        <mxCell id="hhj9J0OS0kFNXhIqKxpL-103" value="&lt;i&gt;Note: Logs this to some form of persistance (so that users can see what applications were submitted)&lt;/i&gt;" style="text;html=1;align=center;verticalAlign=middle;whiteSpace=wrap;rounded=0;" vertex="1" parent="WIyWlLk6GJQsqaUBKTNV-1">
          <mxGeometry x="130" y="1592.5" width="140" height="115" as="geometry" />
        </mxCell>
      </root>
    </mxGraphModel>
  </diagram>
</mxfile>
